/* XPM */
static char *dummy[]={
"64 64 266 2",
"aO c #2a8cc9",
"a3 c #2a8ccb",
"bZ c #2b89c6",
"bY c #2b8bc7",
"aB c #2b8dca",
"a6 c #2b8dcc",
"aP c #2b8ec9",
"ad c #2b8fcb",
"ac c #2b8fcd",
"bO c #2b91cf",
"bb c #2c8ac7",
"b1 c #2c8ac8",
"a7 c #2c8bcb",
"bj c #2c8cc8",
"av c #2c8cc9",
"#6 c #2c8ecb",
"#5 c #2c8ecd",
"b8 c #2c8fca",
"aA c #2c90cc",
"#3 c #2c90ce",
"bP c #2c92d0",
"b3 c #2c93ce",
"bc c #2d8bc8",
"ba c #2d8bc9",
"#Y c #2d8ccc",
"bk c #2d8dc9",
"aw c #2d8dca",
"#L c #2d8fcc",
"#M c #2d8fce",
".3 c #2d90cb",
"aa c #2d90d1",
"aJ c #2d91cd",
"#B c #2d91cf",
"a# c #2d93d1",
"ab c #2d93d3",
"b2 c #2d94cf",
"bA c #2e8cc9",
"bl c #2e8cca",
"#N c #2e8dcd",
"b# c #2e8eca",
".g c #2e8ecb",
".S c #2e90cd",
"#p c #2e90cf",
"a. c #2e91ca",
"#1 c #2e91cc",
".l c #2e91d2",
"b5 c #2e92cd",
".8 c #2e92ce",
".F c #2e92d0",
"#V c #2e94d2",
".0 c #2e94d4",
"#H c #2e95d0",
"bM c #2e97d1",
"bC c #2f8dca",
".f c #2f8dcb",
"#S c #2f8ece",
"b. c #2f8fcb",
".P c #2f8fcc",
".R c #2f91ce",
".m c #2f91d0",
".c c #2f91d2",
"#U c #2f92cd",
".K c #2f92d3",
"aT c #2f93ce",
".C c #2f93cf",
".U c #2f93d1",
".2 c #2f95d3",
".1 c #2f95d5",
".y c #2f96d1",
".s c #2f97d4",
"bf c #308ecb",
"aF c #308ecc",
"aL c #308ece",
".E c #308fcf",
"bG c #308fd1",
"#2 c #3090ca",
"a9 c #3090cc",
".p c #3090cd",
".b c #3091d5",
".Q c #3092cf",
".d c #3092d1",
".a c #3092d3",
"bi c #3093ce",
"## c #3093d4",
"bH c #3093d6",
"aI c #3094cf",
".w c #3094d0",
".V c #3094d2",
".7 c #3096d4",
".r c #3096d6",
"ag c #3097d2",
"ay c #3098d5",
"ax c #3098d7",
".6 c #3099d3",
"bg c #318fcc",
".e c #318fcd",
".D c #318fcf",
".q c #3190d0",
"bh c #3191cd",
".o c #3191ce",
"bJ c #3192d6",
"#F c #3193d0",
".9 c #3193d2",
".O c #3193d4",
"#8 c #3194cf",
"#K c #3194d5",
"a1 c #3195d0",
".x c #3195d1",
".W c #3195d3",
".v c #3197d5",
"#I c #3197d7",
".j c #3198d3",
"#k c #319ad4",
"bV c #319bd5",
"bK c #3290cd",
"aK c #3290ce",
"bT c #3290d0",
".L c #3291d1",
"#s c #3291d3",
"bz c #3292ce",
".n c #3292cf",
"#J c #3294d1",
".M c #3294d3",
".# c #3294d5",
"#P c #3295d0",
"Qt c #3295d6",
"af c #3296d1",
".4 c #3296d2",
".Z c #3296d4",
".k c #3298d6",
"#A c #3298d8",
"#z c #3298da",
"cb c #3299d3",
".5 c #3299d4",
"aY c #329ad7",
"aj c #329ad9",
"bD c #3391ce",
"bo c #3391cf",
"bF c #3391d1",
"ae c #3392d2",
"bw c #3393cf",
"#4 c #3393d0",
".h c #3395d2",
"#b c #3395d4",
"#e c #3395d6",
"#7 c #3396d1",
".H c #3396d7",
"bI c #3396d9",
"aC c #3397d2",
".i c #3397d3",
".G c #3397d5",
"#a c #3399d7",
"#C c #3399d9",
"#T c #3399db",
"aD c #339ad4",
"#l c #339ad5",
".A c #339bd8",
"#9 c #339bda",
"a2 c #339cd6",
"ce c #339dd9",
"bL c #3492cf",
"aG c #3492d0",
"aS c #3493d3",
"bn c #3494d0",
"a0 c #3494d1",
"#v c #3496d3",
"#c c #3496d5",
".N c #3496d7",
"#W c #3497d2",
".I c #3497d8",
"#q c #3497da",
"#i c #3498d3",
"#j c #3498d4",
".B c #3498d6",
".X c #349ad8",
".z c #349ada",
".J c #349adc",
"#h c #349bd6",
"#Z c #349bdd",
"b9 c #349cd3",
".t c #349cd9",
"ap c #349dd7",
"be c #3593d0",
"aM c #3593d1",
"bp c #3594d4",
"bm c #3594d6",
"by c #3595cf",
"bd c #3595d1",
"aH c #3595d2",
"ah c #3597d4",
"#E c #3597d6",
"#d c #3597d8",
"b4 c #3598d3",
"#t c #3598d9",
"az c #3599d4",
"#w c #3599d5",
"#O c #3599d7",
".u c #359bd9",
"#D c #359bdb",
"#0 c #359bdd",
"#n c #359cd7",
"#g c #359dda",
"#f c #359ddc",
"#x c #359ed8",
"bS c #359fdd",
"bN c #3696d2",
"br c #3696d3",
"aV c #3698d5",
"aE c #3698d7",
"bB c #3698d9",
"#X c #3699d4",
".Y c #3699dc",
"aZ c #369ad5",
"aN c #369ad6",
"#. c #369ad8",
"aX c #369bd3",
".T c #369cda",
"ak c #369cdc",
"aq c #369cde",
"#m c #369dd8",
"ar c #369ddf",
"at c #369edb",
"as c #369edd",
"#G c #369fd9",
"bR c #36a0dc",
"c. c #3799d6",
"bU c #3799d8",
"bW c #379ad5",
"b0 c #379bd6",
"#o c #379bd7",
"#u c #379bd9",
"ai c #379ddb",
"bu c #379ddd",
"#y c #379ed9",
"#Q c #379fdc",
"am c #379fde",
"b6 c #37a0da",
"bQ c #37a1dd",
"cg c #37a4df",
"bX c #389ad7",
"aW c #389bd6",
"#r c #389bdc",
"aR c #389cd7",
"aU c #389cd8",
"bx c #389cda",
"au c #389edc",
"#R c #389fda",
"al c #389fe1",
"b7 c #38a1da",
"ch c #38a1db",
"an c #38a2de",
"bE c #399bd8",
"aQ c #399cd7",
"bq c #399dd9",
"bv c #399ddb",
"bt c #399fdd",
"ca c #39a0da",
"c# c #39a0db",
"ao c #39a1de",
"cd c #39a2dc",
"cf c #39a3df",
"bs c #3a9eda",
"a5 c #3aa1db",
"cc c #3aa4e0",
"a4 c #3ba2dc",
"a8 c #3ca0db",
"QtQt.#.a.b.a.c.d.e.f.g.h.i.j.k.kQt.l.m.m.n.o.o.o.p.o.q.mQt.r.s.t.u.v.d.d.w.x.x.w.w.y.z.A.B.C.n.o.D.E.q.m.F.G.H.I.J.J.H.K.L.M.N.H",
"QtQt.O.a.a.K.K.d.P.g.g.h.j.j.v.k.G.F.F.m.Q.Q.R.S.R.o.E.dQt.r.v.u.T.G.U.d.V.x.x.w.w.W.X.T.k.C.Q.q.E.E.m.m.F.G.H.I.Y.Y.H.a.d.M.H.I",
".Z.Z.Z.W.W.0.1.2.C.3.S.4.5.6.7.k.Z.8.8.C.x.4.w.w.w.R.q.L.9.Z.G#.#..G####.U.W.W.V.U.W#a.X.v.V.V.d.m.m.R.R.m#b#b#c#d#d#e.O.O.H.B.B",
".i.i.G#..X.u#f#g#h#i#j#j.5#k.7.k.i.x.y#l#m#m#n#n#o.C#p.E.9.9.W.W.Z.G#q.I.H.Z.Z.F.F.U.G.v#a.u#r.I#b#c.Q.R.R.d.d.d.L#s.##d.I#t#u#u",
"#c#c#v#w#l.u#f#g#l.5.B.B.k.k.B.G.i.x.V#a#x#x#m#y#m.C#p#p.9.9#b#b.Z.G#z#A.H.Z#b#B.F.U.G.G#C#D#D.I#b#b.Q.R.R.Q.Q.Q.Q.d.M#E.B#.#u#.",
".L.d#F.h.4.v#a#a.v.4.Z.G.7.7.V.W.x.4.Z.X#G#G#l#j.j#H.V.V.m.m.d#b.Z.Z#I#I.W.W.d.m.F.F.9.V.H.z.z.H.9.9.9#F#F#J#J#F.Q#F#b#c.G.G.B.B",
".f.g.P.Q.U.V.W.W.W.V###K.r.7.F.8.V.k.k.X#G#G.w#L#B.v#A.v#M#N#p.#.W.W.W.W.9.Q.m#p#p#p#p#B.V.X.zQt.m.q.M#b.Z#O#O.i#J#P.x.4.4.x#J#J",
".f.P.P.n.d.V.W.W.V.K.K#K.Z.Z.R.R.V.k.k.X#Q#R#J.S#B.G#A.G#M.g#p.M.M.W.W.W#F.Q.d#p#p#M#p#M.W.X.z.Z.R.o.M#b.Z#w#w#j#J#P.4.4.4.x#J.h",
".g.g.g.P#S.m.W.W#I#T#z.K.Q#U.p.S.m.W#K.W#V.Z.V.U.U.V#K.9#S.g.P.R.Q.Q.9.9.x.w.V.V.V.V#F#F.W.Z.Z.9.n.n.E.m.R#W#X#P.S#L.d.M#J#J.M.M",
"#L#L.P#Y#Y#p.M.1#A#Z#0.U#1#2.P.P#p.9##.l#3#3.U.V.V.V.9.9#S.g.P.p.S.R.d.d.w.w.V.Z.7.Z.i#v.W.V.9.9#4#4#S#5#6#P#7#8#6#6.m.M#J#J.9.M",
"#3#M#S#Y#Y#p.O.1#A#9#D.U#1a..P.g#p.9.Va#aaaaab.0.V.U.9.d#M#5#M#p#L.S.d.d.w.w#V.7.Z.Z.i.i.x.w.9.9#F#F#Macad.x.h#F#6#6.F.W.W.V.V.V",
".V.U.c.aae.d.a.l#I.A.X.jaf#W.p.P#L#p#B#VQt#I#C.u.T.G.4.4#b.Z#b.Z.h#F.d.d.xag.7.2.W.V.x.x.w.8.m.d#F#F#..T.u.4.W.hah#j.Xaiai.7.F.U",
".F.U.U.W.#.O.m.F.v#h#h.5.j.4#L.P.P.S.R.W#Aaj.t#G#x.5.v.v.B.k.B.v.i.x.Q.Cag.j.5.x.W.W.W.W.V.F#p.d#F.Vakalam.7#K.Z#o#h#ganao.v.8.Q",
".U.U.U.W.W.M.m.d.4.5#l.5.k.7#L.P.P.R.S.V.H#I#h#yap.6.v.v.k.k.v.7.4.x.w.wagag.4.4.Z.Z.W.W.W.U.d.9.9.Vaqaras#I.r.G#w#l.Aatau.4.Q.Q",
".R.S.R#F#F.Ravaw.F.2.2.X#g.X#L.g#L.M.d.d#p#p.V.B.7.vaxay.j.j.W#3.S.xaz#i.CaA.S#j#.#u.B.G.HQt#e.#.a.O#K#K.7#a.X.B.w#F.R.S.p#4.h#P",
".S.R.R#F#F.RawaB.F.2.1.zat.Aad#6#B.W.9.m.p.p#F#c.Z.v#I.k.jaC#F.S.S.xaDaD.C#6.SaE#.#.#E#E.I.H.N.O.O.O.9.M.W#a.X#O#F#4.eaFaFaGaH#7",
".V.V.w.w.C.F#M#3#V.2.2.X#g.A.F#B.U.Z.Z.U.S.S#F#J.x.5#a.k.x#8#8#8aIaC#l#h.waJ.d#b#c#v#b#c.Z.W.M.M#K#K.9.d.V.B#t.B.R.naKaFaLaMaHaH",
".B.B.i.C.U.V.Z.Z.Z.2#V#a.A.A.k.B.B.B#O.Z#F#F#P#P.xaN#.#waOaP#UaQazaR#R#Rag.U.m#M#L.S.9.9.U#B#M.VQt.r.d.m.F.ZQt.V#Y.gaF.e.DaSaHaH",
".k.k.G.U.K###e.Z.V.x.2.k#9#9.k.k.k.k.B.W.waT#P#P.x#.aUaVaBaw#UaWaXaR#R#R.7a#.U#3#L#p####.UaJ#M.UQt.r.d.m.m#b.H.V#N.g#S.E.q.M#b#b",
".7.7.Z.V##.K.O.9.w.w.x#a.AaY.2.W.V.U.F.4aZazaf#J.x.iaha0.g.g.R#7#7aC#w#l.v.7.Z.V.C.V#KQt.W.x.Z.Z#C#I.W.M.M.M#K.W.M#Jae.E.m.M#c#c",
".W.W.W.W.M.9.m.m#Fa1af#la2#a.U.m#pa3a3.ha4a5.i.w.w.R.p.p.p.P.p.P.p.Q.x.x.k#a#a.v.v.v#I#I.k#l#a#a#C#C.B.B#v.Q.d.V#u#u.N.c.m.M.G.G",
".W.W.Z.M.M.d.m.R#F#Pafaz#n.5.m.m#pa6a7#va8a4.i.V.w.Qa9.e.E#p.R.S.p.Q#J.x.B#a#O.G.G.G.G.v.5#h.k#a#C#O.Bah#v.R.m.W#u#u.N#p.m.M#c.G",
".Q.Q.Q#F#F.x.i.i.4.x#J#F.w.x.W.W.V.m.E.L.h.4.d.m.Rb.aF.p#b.W.W.V#F#J.M.W.4#j.h.P.g.P.d.U.w.x.W.Z.G.G#J#F#J.ZQtQt.W.V.d.E.q#4.M.M",
".R.R.o.Q.C.4#w#w#j.4.h.R.R.Q.Z.G.W.m.q.q.Q.R#M.S.pb#.f.P.B.k.v.Z.h.h.M.M.4#vaHbabbbc.n#p.C.C.d.M.Z.h#4.n.d.G.H#K.V.d.m.E.D#4.M.9",
".R.R.m.m.C.4#w#w.i.i.M.m.8.C.Z.G.W.F.m.m.C.C.R.S.S#6.g#L.B.k.i#J#Ja0.M.M.h#vbdbcbbbc.n.R.U.U.C.x#v.h#4.n.d#c.HQt.d.d.m#p#Sae#b.M",
"#F.9.9.d.U.w.i.i.C.8.m#p.U.w.W.W.V.V.V.Z#j#j#v.h#J#L.p.R.4.4#FaBaw.o.9.9#J.hbebfbfbg#4#F.W#O.B.8#6.g.o.n.9#bQt.M.o.p#s.#aSaS.M.M",
".M.M.M.d.U.U.h.h.Q.S#p.m.d.d.w.w.V.W.W.G.5#w#W#Wbdbh.p.R.4a1bibjbk.o.9.V#J#PbebgaF.eae.9.Z#a.B.mawblaK.n.d.M.Z.M.o.p#sbm#b#b.M.M",
".M.M.M.V.V.V.4.i.Q.S#p.m.d.d.w.w.W.W.W.G#j#j.i#v.h.o.p.R#J.x.Q.S.3.R.9.9#J#PbnbhaK.o.M.W.Z.B.I.m.gblbo#4#F.M.M.M.o.qaebp#b#b.M#J",
".d.d.W.X#h#l.5.5.x.4.M.c.m.m.Z.Z.7.2.r.V.8.8.W.Z.Z.Q.Q.Q.9.V.7.Tbq.4.E.q.xaf.h#Fae.M#waN.i#F.9.d.n.nbn#W#7.R.Q#FaS.M#c#c#c.ha0bn",
".d.d.V#.#h#l.5.5ag.7Qt.l.m.m.Z.Z.Z.7Qt.V.8.8.Z.Z.Z.d.Q.Q.M.O.rau#y.i.q.o.xaf.4#F.9.Z#w#j.4#F.9.d.d.Q.h#7#7bi.n#4#b#b#c#c#vaHbnbn",
".p.p.Q.h.4.j.i.4.v.v#I.0.V.U#J#J.M.W.M.V.U.V.V.Z#b.R.o.o#4.d.M#.aN.4#4.n.x.4.4.i.B.G#O#O.4.x.W.Z.G.Z.Z.4.h.Q.Lae#F#J#b#baHa0#4#4",
".P.g.g#Lad.8.4.4.k#a#C#A.k.G.Q.Q.m.m.m#b.I.B.Z.G.h.S.PaF.o.o.d.M.w.hbrbr.h.4.4bsbt.T.W.Z.i#w#O.ububu.H.Z.h.Q.L.L.R.S.m.L.n.p.o.o",
".g.g.g.P#L#F.h.x.k#a#C#A.k.i.Q.n.o.o.o#J#E#O.G.4.h#L.g.Pa9a9.Q#J#J.hbrbr.h.h.Zbvbtai.Z#b#v#j#Oaiamas#I.Z.h.n.n.n#p.m.q.q.L.q.o.o",
"#J#J#4.p#L.R.Q.Q.W.G.IQt.Z.4.Q.p.o.o.o#4.M.M.x.w.w.h#v.hbwbw#4.p.p.n#4.n.n#F.9#O.u#a.d.Q.Q#F.W.k#9#9#I.G#v.n.o#4#c#E#bae.9.9#4a0",
".ubxaV#L.p.P.p.p.V.W.#.#.W.W.S.p#p.m.m.d#F#F.d.U.Cbq#Rbq#7bybzbcbAbfbgbg.e.o.R.i#j.4#L.P.P.p#p.9.G.v#O.B.i.R.o#JbxbxbB.#.M.M.M.M",
".u.u#j.S.p.p.e.p#J.MaSaS.M.M#p#p#M.m.m.d#F#F.d.d.Cbq#y#yaf#7bzbAbAbCbga9aF.o.p#vah.h.P.p.P.p.E.9.G.G.Bah#v.Q.oa0bxbx#E.M.M.M.M.M",
"#j#j#b.d.d.o.fbCb..P.P.E.d.d.9.9.d.M.x.x.M.M.W.W.W.G.G.v.B#O#c.o.o#4#4#Ja0#4bnbw#4#4.p.P.p.p.p.h#..B#J#4#4a9.e.nahaV.h.n#4.n.o.o",
"#v#v#c.d.9.m.gb#bkbkaw.S.m.F#K#K.M#b.4.x.M.M.Z.Z.Z.W.W.W#C#C#E.daS.h#v#v#J#Jbnbz.n.o.p.p.p.p.P.h#O#O#F.nbDbfaF.obr#va0.o.n.oaK.e",
"aHbr#b.O##.m#6#6#6#6#5.m.l.K.K#K.##b.h#J.W.W.Z.Z.Z.W.x.4#a.z#d.9.d.M#c.i.w#Pa0.n.L.E.R.R.S.S.S.h#w#w#J.nbDbfaF.obr#va0.n.Q.o.DaL",
".q.q.a.I.I.IaE#waN#.#.#t#C#C###K.#.M#b.M.V.V.Z.Z.Z.w.w.w.V#K.##e.M#b.G.iaCaC.h.n.LaSbE#oah#F.h.h.i.i#v.haHbDbo.n.h.ha0.n.Q.Q.LbF",
"bGbG.b#q#q#C#u#..Taibu.J#Z.J#K#K.W.Z.Z#K.O.O.Z.Z.4.w#F#F.9.9.##eQt.H#c#vaCaC#v.Q.n#J#uai#O.W#b#c.G.G#c#vbr.n.q.L#b#b.M.d.Q.d#s#s",
".a.cbHbI#z#A.B.B.X.u#D#A#C#I#K#K.Z.Z.Z.M.d.L.9#J#J#F#F#F.9.9.##eQt#b#b.h#7af.h.R.o#F#..u.B.M.M.M#b#b#baSa0.n.L.9#e#e#b.V.W.V.ObJ",
"#O#t.I###K.V#p#B.U.V.V#B.m.mQt#I.Z.Z#b.obCbCbKbLbwbh.o.n.h.h#b#b#b.Q.P.P.Q#F#4.PbC.P.M.W.Q.S.p.P.g.g.P.P.pah#c.G.G.G#t#D#D#C.I.I",
"#a#a.B.W.W.U#p#M.V.V#F.S.S.m.G.v.G#baH.obCbCbKbLbwbh.o.n.h#J.M#b.h.o.P.P.d.9#F.g.f.Pbp.M.Q.S.paFbCbCaFaF.p.h#c.G.G.G.B.Tak#a#A.v",
".6.5.4.w.w.8.m.m.U.U.d.d.d.V.G.i.h#F#4.n.S.S#4a0.h.Q.L.L.M.MaSaeae.n.o.o.d.9.9#L.P.PaS.M#F#Fbza9.P.paFaF.P#J.M.M#J#J.h.h#b.i.Z.4",
"bM.y.w.8.C.8.U.U.F#B#p.M.Z.Z#j.i#J.R.o.Q.x.x#c#c#v#F.L.L.M.Mae.q.Eaea0#J.9.d.U.d.n.n.9.9#F#vbNbw.R.S.p.P.P.n.9.d.R.R.p.g#6.R.w.w",
".y#H.waJbObPa#.F.F#B#L#J#b#b#v#W.h.R.S.Q.x.x#c#c#v#F.d.da0a0.L.q.m.9.M.M.9.U.d.d.m.9.9.9#J#W#v#F.S.R#M#S.P.n.Q.Q.o.n.e.g#6.R.w.w",
".V#Hag#haYaYaY#a.W.U.Q#F#F#F.Q.Q.Q#F#F#F.w.w.9.M#F#J.M.9#4#4.Lae.m.M#E.Z.G.G.G.M#b#b.9.9#J#jah.4.M.M.9.d.Q#v#v#J.p.p.e.o.R.4.i.j",
".O.VaybQbQbRbS#Q.k.x.x.w.C.R.S.E.m#b.Z.W.Qbi.R.Q.Q#J.4.4#F#J#4.n.d#b.I#A.X.k#C.H.I.H.9.9.Z#a#O.k.I.B.Z.Z.Z#.#.#c.P.PbTae.x#la2a2",
".O##.vbRbRbRbSat.5.w.4.w.C.Q#p#p.d#bQt.V.Qbi.Q.Q.Q#J.h.h#F#F#4.n.d#b.I.H#a#a#a.B.B.G.9.9Qt#C#C#A#C.k.Z.Z.ZaNbU#v#L.P.q.9.w.5a2bV",
".U.U.V.v.j.6.k.k.x.C.d.R.R.R.m#p.d.ZQt.Z.h#7.o.P.p.n#4#F#J#JaS.E.p.n#F#F.V.V.WaN#o#w.Q.Q.W.Z.W.G.k.5.4#J#J.3awa9#XbW#v.C.2#a#g#g",
".V.U.U.Z.y.y.Z.Z.w.C.d.m.R.R.m.m.U.ZQt.G#v#W.o.P.g.o.n.R.4.4.M.E.p.obh#U.d.U#FbXaUaZ#4.n.9.W.V.G#l#w.h#Ja0bYbZb.aQb0#w.x.2#a.T#g",
"#H#H.w.x.y.y.Z.Z.U.U.V.F#B.F.m.m.F.ZQt.G.i#v.o.p.S.Q.9.V.Z.Z#F.R.R.Qbibi.d.d.VaNaN#w#4.n#F#J.W.G#O#O#b#Ja0avb1.P#o#m#a#V.W#Obx#n",
"#h#h#j.Cb2b3.U.U.W.G.G.W.V.W#E#c.Z.ZQtQt.B#j#J.Q#JaNbx.X.2.W.i#o#oaNb4ah#E.B.B.Z.G.i#Ja0#J#F.V.W.Z.Z.B#E#v.P.g.oaN#h.k.7.Z.V.w.C",
"a2#h#j.C.C.Ca#a#.2.v.v.2.W.W.G.G.G.ZQtQt.k.B#J#F.x#mat.t.2.x.i#y#y#oaVaV.B.B.I.G.G.G.M.M.M.9###K#eQt#O.B#v.S#M.m#hap.k.r.Z.V.m.m",
"#l.5#j.8.S.8.UbP.2.v.v.v.Z.W.Z.Z.Z.WQtQt.k#O.4af.4#laYaY.4.4#j#w#w#j#v.h.h.Z#b#b#c.Z.M.M.9.d.d#K.H.H.Z.4#v.R#M.V#nap.k.V.V.m#M#p",
".Z.Z#FaB.g#L.S#3.2ax#I#I.v.Z.8.R.F.U.U.W.G.iazaXaZb5.8.C#waN#v#La9a9.p.e.fblaw.o.o.R.Z.Z.Q.g.g.9#A.k.R.S.oa0.9.Gb6b7#ib8.3.gaw.g",
".Z.Z#F.g.g.P.S#3.2ax#I.r.v.Z.8.R.F.U.U.W.G.4aDb9azaT.R.Q#jc.ah.P.p.paFaFbCbcbAaK.o.R.W.4.Q.g.g#F.B.k.Qa9.p#4.9.Gc#ca#ib8b..Pawaw",
".5#j.4.S#p.m.FbP#V.2.W.Z.Z.Z.V.W.w.x.x.x.x.w.jcb.i.w.Q#F.h#v#c.W.Z#F.p.o.p.P.p.q.q.L#J#J.nb.aF.n.M.W.Q.Q.n.o.q.9#j#i#P#U.R.m#p#p",
"#l#l#j.w.9.V.Ua#a##V.U.W.M.M.B.B#j.i.i.w.8.8#H.y.x.x#J#J#F.R.Zbvai.B#F#4#J#Fae.L.L.d.Q.Q#Ub..P.p#p#p#J.h#4.P#S#S#LaB.R#J.M.M.9.M",
"#l#l.B.V.V.U.U.U.U.U.U.W.W.W.B.Bah#v#W#8.8.8.V.W.W.V.M.9aS.9.Zbx.T.G.9.M#4.n.9.d.d.U.C.C.R.S#M#p.S.S.W.Z#J#L#M#M#L#L.R.M.W.MaSaS",
".k.k.G.V.W.Z#O#O.Z.W.W.F.F.U.W.W#J.Qbi#U.R.8.Z.B.B.U.d.m.L.L.9.G.G.Z.Z#b#4.o.d#b.G.k#m#m#o#j.B.Z.9.Q.W.Z.h.h#b#bah#v#c#c.G.9.qbT",
"#I.v.Z.W.4.5.Tai.G.W.M.m#p#p.d.9.Q.Sa9#1.R.m.G#.#..U.m.q.o.o.q.9.V.Z.G.G#F.R.L#E#a.tcccccd#yau.k.W.W.Z.Z.Z#O#O#.bvbv#..B.i.Q.E.E",
"#I#I#b.W.x.5#g#g.B.W.M.m#p#p.d.9.Q.Sa9a9.m.m.G#.#..U.q.q.o.o.L.9.9.Z.G.G#F.R.L#E#acecfcgch#Gasaj.W.W.Z.Z.Z#O#a.Xbxbv#..B#j.C.E.E"};
